# xmcd
#
# Track frame offsets:
#	150
#	24394
#	46172
#	67834
#	86881
#	111283
#	126317
#	143753
#	163130
#	190276
#	207657
#	228660
#
# Disc length: 3361 seconds
#
# Revision: 0
# Processed by: cddbd v1.5.1PL0 Copyright (c) Steve Scherf et al.
# Submitted via: audiograbber 1.83.01
#
DISCID=ae0d1f0c
DTITLE=Rob Berg - Monsoon
DYEAR=2002
DGENRE=Christian Rock
TTITLE0=monsoon
TTITLE1=believe my eyes
TTITLE2=the kingdom
TTITLE3=memories of monte alban
TTITLE4=my desire
TTITLE5=on the move
TTITLE6=try some dental meditation
TTITLE7=spread the word
TTITLE8=engraved my heard
TTITLE9=the building
TTITLE10=all caught
TTITLE11=parting thoughts
EXTD=
EXTT0=
EXTT1=
EXTT2=
EXTT3=
EXTT4=
EXTT5=
EXTT6=
EXTT7=
EXTT8=
EXTT9=
EXTT10=
EXTT11=
PLAYORDER=
